<svg width="60" height="60" viewBox="0 0 60 60" fill="none" xmlns="http://www.w3.org/2000/svg">
<path d="M22.5 41.25C20.75 41.25 19.2708 40.6458 18.0625 39.4375C16.8542 38.2292 16.25 36.75 16.25 35C16.25 33.25 16.8542 31.7708 18.0625 30.5625C19.2708 29.3542 20.75 28.75 22.5 28.75C24.25 28.75 25.7292 29.3542 26.9375 30.5625C28.1458 31.7708 28.75 33.25 28.75 35C28.75 36.75 28.1458 38.2292 26.9375 39.4375C25.7292 40.6458 24.25 41.25 22.5 41.25ZM12.5 55C11.125 55 9.94792 54.5104 8.96875 53.5312C7.98958 52.5521 7.5 51.375 7.5 50V15C7.5 13.625 7.98958 12.4479 8.96875 11.4688C9.94792 10.4896 11.125 10 12.5 10H15V5H20V10H40V5H45V10H47.5C48.875 10 50.0521 10.4896 51.0312 11.4688C52.0104 12.4479 52.5 13.625 52.5 15V50C52.5 51.375 52.0104 52.5521 51.0312 53.5312C50.0521 54.5104 48.875 55 47.5 55H12.5ZM12.5 50H47.5V25H12.5V50Z" fill="black"/>
</svg>
